<svg width="67" height="74" viewBox="0 0 67 74" fill="none" xmlns="http://www.w3.org/2000/svg">
<path d="M57.0912 8.97683C50.7731 3.188 42.3727 0 33.4378 0C24.5029 0 16.1005 3.188 9.78249 8.97683C-2.55418 20.2806 -3.22273 38.2896 7.77789 50.3199V30.7279C7.77763 30.6418 7.77709 30.5552 7.77789 30.4688V30.3909H7.77951C7.85059 24.4538 10.3498 18.5369 15.2823 14.0164C20.1323 9.57387 26.5799 7.12674 33.4378 7.12674C40.2957 7.12674 46.7432 9.57362 51.5917 14.0164C61.6025 23.1891 61.6025 38.1141 51.5917 47.2859L33.4378 63.9196L29.7415 60.533L23.2597 54.5952V44.4973L23.8785 44.8518C26.7436 46.491 30.0476 47.3582 33.4375 47.3582C43.3983 47.3582 51.5055 39.9312 51.5055 30.8043C51.5055 26.3825 49.603 22.3619 46.5095 19.3878L46.4998 19.3777C43.2055 16.2208 38.5676 14.2493 33.4372 14.2493C23.4765 14.2493 15.3708 21.676 15.3708 30.8043V47.367V57.4459L23.2592 64.6738L29.7409 70.6129L33.4372 73.9995L57.0909 52.3245C70.1344 40.3743 70.1344 20.928 57.0912 8.97683ZM33.4378 21.4774C39.0509 21.4774 43.6174 25.6614 43.6174 30.8048C43.6174 35.9465 39.0509 40.1308 33.4378 40.1308C27.8246 40.1308 23.2581 35.9468 23.2581 30.8048C23.2578 25.6614 27.8246 21.4774 33.4378 21.4774Z" fill="url(#paint0_linear_4_20)"/>
<defs>
<linearGradient id="paint0_linear_4_20" x1="33.4368" y1="74" x2="33.4368" y2="0" gradientUnits="userSpaceOnUse">
<stop stop-color="#29ABE2"/>
<stop offset="0.2458" stop-color="#26A6DF"/>
<stop offset="0.5303" stop-color="#1C98D6"/>
<stop offset="0.833" stop-color="#0B81C7"/>
<stop offset="1" stop-color="#0071BC"/>
</linearGradient>
</defs>
</svg>
