<svg width="186" height="54" viewBox="0 0 186 54" fill="none" xmlns="http://www.w3.org/2000/svg">
<path d="M73.2527 23.963C73.0021 22.9565 72.1927 22.5328 70.7476 22.5328C69.5337 22.5328 68.493 22.9743 68.493 23.963C68.493 24.7928 69.2638 25.093 70.2081 25.2518L72.771 25.6756C74.9292 26.0464 76.5095 27.0882 76.5095 29.3658C76.5095 31.4668 74.7367 33.3385 70.979 33.3385C67.4912 33.3385 65.3907 31.7495 65.1017 29.2599H68.0307C68.2813 30.6546 69.6108 31.0785 71.0947 31.0785C72.6171 31.0785 73.6191 30.496 73.6191 29.4895C73.6191 28.5007 72.906 28.1123 71.7498 27.918L69.1292 27.4942C66.836 27.1236 65.6028 25.9582 65.6028 24.0512C65.6028 21.9853 67.4526 20.2726 70.7864 20.2726C73.7924 20.2726 75.8735 21.6853 76.1818 23.9628H73.2527V23.963Z" fill="white"/>
<path d="M87.0277 29.7015H81.7862L80.6686 33.1092H77.8359L82.2101 20.5023H86.6615L91.0549 33.1092H88.1451L87.0277 29.7015ZM82.5187 27.4062H86.2569L84.8116 23.0272H83.9638L82.5187 27.4062Z" fill="white"/>
<path d="M96.0335 22.8507V25.7465H101.776V28.0418H96.0335V33.1092H93.1623V20.5023H103.318V22.8507H96.0335Z" fill="white"/>
<path d="M116.002 30.7608V33.1092H105.616V20.5023H115.79V22.8507H108.487V25.4993H114.172V27.7946H108.487V30.7608H116.002Z" fill="white"/>
<path d="M131.051 20.5023C134.211 20.5023 136.022 21.9856 136.022 24.5104C136.022 27.0706 134.211 28.589 131.051 28.589H127.64V33.1092H124.769V20.5023H131.051ZM130.646 26.2762C132.419 26.2762 133.074 25.6581 133.074 24.5457C133.074 23.4157 132.419 22.8154 130.646 22.8154H127.64V26.2762H130.646Z" fill="white"/>
<path d="M151.434 26.8056C151.434 30.5135 149.102 33.3385 144.728 33.3385C140.354 33.3385 138.022 30.5135 138.022 26.8056C138.022 23.0976 140.354 20.2726 144.728 20.2726C149.102 20.2728 151.434 23.0978 151.434 26.8056ZM148.486 26.8056C148.486 24.4749 147.31 22.621 144.728 22.621C142.184 22.621 140.97 24.4749 140.97 26.8056C140.97 29.1364 142.184 30.9902 144.728 30.9902C147.31 30.9902 148.486 29.1364 148.486 26.8056Z" fill="white"/>
<path d="M157.154 20.5023V33.1092H154.283V20.5023H157.154Z" fill="white"/>
<path d="M172.49 20.5023V33.1092H168.771L163.723 24.5634H163.222V33.1092H160.601V20.5023H164.32L169.369 29.0481H169.87V20.5023H172.49Z" fill="white"/>
<path d="M186 22.8154H181.722V33.1092H178.851V22.8154H174.573V20.5023H186V22.8154H186Z" fill="white"/>
<path d="M41.4803 6.52223C36.8898 2.31628 30.7864 0 24.2946 0C17.8029 0 11.698 2.31628 7.10759 6.52223C-1.85577 14.7351 -2.34152 27.8197 5.65112 36.5606V22.3257C5.65093 22.2632 5.65054 22.2002 5.65112 22.1375V22.0809H5.6523C5.70394 17.7672 7.51978 13.4682 11.1035 10.1838C14.6274 6.95601 19.3119 5.17802 24.2946 5.17802C29.2773 5.17802 33.9619 6.95583 37.4846 10.1838C44.7581 16.8483 44.7581 27.6923 37.4846 34.3561L24.2946 46.4416L21.609 43.981L16.8996 39.6668V32.3301L17.3492 32.5876C19.4309 33.7786 21.8315 34.4087 24.2944 34.4087C31.5315 34.4087 37.422 29.0125 37.422 22.3813C37.422 19.1686 36.0396 16.2473 33.792 14.0864L33.785 14.0791C31.3915 11.7854 28.0218 10.353 24.2942 10.353C17.0571 10.353 11.1679 15.749 11.1679 22.3813V34.4151V41.7381L16.8992 46.9896L21.6086 51.3047L24.2942 53.7653L41.4801 38.017C50.957 29.3344 50.957 15.2055 41.4803 6.52223ZM24.2946 15.6047C28.3729 15.6047 31.6908 18.6446 31.6908 22.3816C31.6908 26.1174 28.3729 29.1575 24.2946 29.1575C20.2163 29.1575 16.8985 26.1176 16.8985 22.3816C16.8983 18.6446 20.2163 15.6047 24.2946 15.6047Z" fill="url(#paint0_linear_5_17)"/>
<defs>
<linearGradient id="paint0_linear_5_17" x1="24.2939" y1="53.7656" x2="24.2939" y2="0" gradientUnits="userSpaceOnUse">
<stop stop-color="#29ABE2"/>
<stop offset="0.2458" stop-color="#26A6DF"/>
<stop offset="0.5303" stop-color="#1C98D6"/>
<stop offset="0.833" stop-color="#0B81C7"/>
<stop offset="1" stop-color="#0071BC"/>
</linearGradient>
</defs>
</svg>
